<mxfile host="Electron" agent="Mozilla/5.0 (Windows NT 10.0; Win64; x64) AppleWebKit/537.36 (KHTML, like Gecko) draw.io/28.0.6 Chrome/138.0.7204.100 Electron/37.2.3 Safari/537.36" version="28.0.6">
  <diagram name="Arquitectura Hexagonal - MS Pagos" id="n73HJ-y4BJk0kBj2-iCW">
    <mxGraphModel dx="1603" dy="889" grid="1" gridSize="10" guides="1" tooltips="1" connect="1" arrows="1" fold="1" page="1" pageScale="1" pageWidth="1169" pageHeight="827" math="0" shadow="0">
      <root>
        <mxCell id="0" />
        <mxCell id="1" parent="0" />
        <mxCell id="b96lccf1VjKM-lZpHiOj-1" value="" style="shape=hexagon;perimeter=hexagonPerimeter2;whiteSpace=wrap;html=1;fixedSize=1;size=80;fillColor=#fff2cc;strokeColor=#d6b656;strokeWidth=3;" vertex="1" parent="1">
          <mxGeometry x="379" y="236" width="400" height="440" as="geometry" />
        </mxCell>
        <mxCell id="b96lccf1VjKM-lZpHiOj-2" value="DOMAIN CORE&#xa;MS-PAGOS" style="rounded=1;whiteSpace=wrap;html=1;fillColor=#d5e8d4;strokeColor=#82b366;fontSize=16;fontStyle=1;" vertex="1" parent="1">
          <mxGeometry x="479" y="256" width="200" height="60" as="geometry" />
        </mxCell>
        <mxCell id="b96lccf1VjKM-lZpHiOj-3" value="PaymentService&#xa;• procesarPagoDistribuido()&#xa;• validarClienteServiCiudad()&#xa;• calcularMontoUnificado()&#xa;• manejarCircuitBreaker()" style="rounded=1;whiteSpace=wrap;html=1;fillColor=#d5e8d4;strokeColor=#82b366;" vertex="1" parent="1">
          <mxGeometry x="489" y="336" width="180" height="100" as="geometry" />
        </mxCell>
        <mxCell id="b96lccf1VjKM-lZpHiOj-4" value="SagaOrchestrator&#xa;• coordinarPagoServicios()&#xa;• rollbackMainframeOracle()&#xa;• confirmarPagoUnificado()&#xa;• manejarCompensaciones()" style="rounded=1;whiteSpace=wrap;html=1;fillColor=#d5e8d4;strokeColor=#82b366;" vertex="1" parent="1">
          <mxGeometry x="494" y="446" width="170" height="100" as="geometry" />
        </mxCell>
        <mxCell id="b96lccf1VjKM-lZpHiOj-5" value="Domain Model&#xa;• PagoUnificado&#xa;• TransaccionDistribuida&#xa;• ServicioLegacy&#xa;• PaymentStatus" style="rounded=1;whiteSpace=wrap;html=1;fillColor=#d5e8d4;strokeColor=#82b366;" vertex="1" parent="1">
          <mxGeometry x="519" y="556" width="120" height="100" as="geometry" />
        </mxCell>
        <mxCell id="b96lccf1VjKM-lZpHiOj-6" value="PaymentAPI Port&#xa;(Input)" style="rounded=1;whiteSpace=wrap;html=1;fillColor=#dae8fc;strokeColor=#6c8ebf;fontStyle=1;" vertex="1" parent="1">
          <mxGeometry x="199" y="336" width="120" height="60" as="geometry" />
        </mxCell>
        <mxCell id="b96lccf1VjKM-lZpHiOj-7" value="EventHandler Port&#xa;(Input)" style="rounded=1;whiteSpace=wrap;html=1;fillColor=#dae8fc;strokeColor=#6c8ebf;fontStyle=1;" vertex="1" parent="1">
          <mxGeometry x="199" y="416" width="120" height="60" as="geometry" />
        </mxCell>
        <mxCell id="b96lccf1VjKM-lZpHiOj-8" value="PaymentRepository&#xa;Port (Output)" style="rounded=1;whiteSpace=wrap;html=1;fillColor=#f8cecc;strokeColor=#b85450;fontStyle=1;" vertex="1" parent="1">
          <mxGeometry x="840" y="147" width="120" height="60" as="geometry" />
        </mxCell>
        <mxCell id="b96lccf1VjKM-lZpHiOj-9" value="PaymentGateway&#xa;Port (Output)" style="rounded=1;whiteSpace=wrap;html=1;fillColor=#f8cecc;strokeColor=#b85450;fontStyle=1;" vertex="1" parent="1">
          <mxGeometry x="840" y="366" width="120" height="60" as="geometry" />
        </mxCell>
        <mxCell id="b96lccf1VjKM-lZpHiOj-10" value="NotificationService&#xa;Port (Output)" style="rounded=1;whiteSpace=wrap;html=1;fillColor=#f8cecc;strokeColor=#b85450;fontStyle=1;" vertex="1" parent="1">
          <mxGeometry x="840" y="574" width="120" height="60" as="geometry" />
        </mxCell>
        <mxCell id="b96lccf1VjKM-lZpHiOj-11" value="LegacyEnergyService&#xa;Port (Output)" style="rounded=1;whiteSpace=wrap;html=1;fillColor=#f8cecc;strokeColor=#b85450;fontStyle=1;" vertex="1" parent="1">
          <mxGeometry x="840" y="476" width="120" height="60" as="geometry" />
        </mxCell>
        <mxCell id="b96lccf1VjKM-lZpHiOj-12" value="LegacyWaterService&#xa;Port (Output)" style="rounded=1;whiteSpace=wrap;html=1;fillColor=#f8cecc;strokeColor=#b85450;fontStyle=1;" vertex="1" parent="1">
          <mxGeometry x="840" y="256" width="120" height="60" as="geometry" />
        </mxCell>
        <mxCell id="b96lccf1VjKM-lZpHiOj-13" value="REST Controller&#xa;PaymentController&#xa;@RestController&#xa;@PostMapping(/pagos)" style="rounded=1;whiteSpace=wrap;html=1;fillColor=#e1d5e7;strokeColor=#9673a6;" vertex="1" parent="1">
          <mxGeometry x="19" y="316" width="140" height="100" as="geometry" />
        </mxCell>
        <mxCell id="b96lccf1VjKM-lZpHiOj-14" value="Kafka Listener&#xa;PaymentEventListener&#xa;@KafkaListener&#xa;(topics = &#39;payment-events&#39;)" style="rounded=1;whiteSpace=wrap;html=1;fillColor=#e1d5e7;strokeColor=#9673a6;" vertex="1" parent="1">
          <mxGeometry x="19" y="436" width="140" height="100" as="geometry" />
        </mxCell>
        <mxCell id="b96lccf1VjKM-lZpHiOj-15" value="JPA Repository&#xa;PaymentJpaAdapter&#xa;@Repository&#xa;implements PaymentRepository" style="rounded=1;whiteSpace=wrap;html=1;fillColor=#ffe6cc;strokeColor=#d79b00;" vertex="1" parent="1">
          <mxGeometry x="1000" y="127" width="140" height="100" as="geometry" />
        </mxCell>
        <mxCell id="b96lccf1VjKM-lZpHiOj-16" value="PSE Gateway Adapter&#xa;ServiCiudadPSEAdapter&#xa;implements PaymentGateway&#xa;• Circuit Breaker&#xa;• Resilience4j" style="rounded=1;whiteSpace=wrap;html=1;fillColor=#ffe6cc;strokeColor=#d79b00;" vertex="1" parent="1">
          <mxGeometry x="1000" y="346" width="140" height="100" as="geometry" />
        </mxCell>
        <mxCell id="b96lccf1VjKM-lZpHiOj-17" value="Kafka Publisher&#xa;NotificationAdapter&#xa;@Component&#xa;• Async messaging&#xa;• Event publishing" style="rounded=1;whiteSpace=wrap;html=1;fillColor=#ffe6cc;strokeColor=#d79b00;" vertex="1" parent="1">
          <mxGeometry x="1000" y="554" width="140" height="100" as="geometry" />
        </mxCell>
        <mxCell id="b96lccf1VjKM-lZpHiOj-18" value="Mainframe Adapter&#xa;MainframeEnergyAdapter&#xa;• Circuit Breaker&#xa;• 3270 Terminal&#xa;• EBCDIC Translator" style="rounded=1;whiteSpace=wrap;html=1;fillColor=#ffe6cc;strokeColor=#d79b00;" vertex="1" parent="1">
          <mxGeometry x="1000" y="693" width="140" height="100" as="geometry" />
        </mxCell>
        <mxCell id="b96lccf1VjKM-lZpHiOj-19" value="Oracle Adapter&#xa;OracleSolarisAdapter&#xa;• Circuit Breaker&#xa;• Fixed Width Parser&#xa;• PL/SQL Interface" style="rounded=1;whiteSpace=wrap;html=1;fillColor=#ffe6cc;strokeColor=#d79b00;" vertex="1" parent="1">
          <mxGeometry x="830" y="693" width="140" height="100" as="geometry" />
        </mxCell>
        <mxCell id="b96lccf1VjKM-lZpHiOj-20" value="PostgreSQL&#xa;Database&#xa;payments_db" style="shape=cylinder3;whiteSpace=wrap;html=1;boundedLbl=1;backgroundOutline=1;size=15;fillColor=#f8cecc;strokeColor=#b85450;" vertex="1" parent="1">
          <mxGeometry x="1020" y="11" width="100" height="80" as="geometry" />
        </mxCell>
        <mxCell id="b96lccf1VjKM-lZpHiOj-21" value="PSE Payment&#xa;Gateway&#xa;External API" style="ellipse;whiteSpace=wrap;html=1;fillColor=#f8cecc;strokeColor=#b85450;" vertex="1" parent="1">
          <mxGeometry x="1020" y="244" width="100" height="80" as="geometry" />
        </mxCell>
        <mxCell id="b96lccf1VjKM-lZpHiOj-22" value="Apache Kafka&#xa;Message Broker&#xa;payment-events" style="ellipse;whiteSpace=wrap;html=1;fillColor=#f8cecc;strokeColor=#b85450;" vertex="1" parent="1">
          <mxGeometry x="1020" y="456" width="100" height="80" as="geometry" />
        </mxCell>
        <mxCell id="b96lccf1VjKM-lZpHiOj-23" value="API Gateway&#xa;Spring Cloud&#xa;Gateway" style="ellipse;whiteSpace=wrap;html=1;fillColor=#dae8fc;strokeColor=#6c8ebf;" vertex="1" parent="1">
          <mxGeometry x="39" y="189" width="100" height="80" as="geometry" />
        </mxCell>
        <mxCell id="b96lccf1VjKM-lZpHiOj-24" value="Event Sources&#xa;• MS-Clientes&#xa;• MS-Facturación" style="ellipse;whiteSpace=wrap;html=1;fillColor=#dae8fc;strokeColor=#6c8ebf;" vertex="1" parent="1">
          <mxGeometry x="39" y="576" width="100" height="80" as="geometry" />
        </mxCell>
        <mxCell id="b96lccf1VjKM-lZpHiOj-25" style="edgeStyle=orthogonalEdgeStyle;rounded=0;orthogonalLoop=1;jettySize=auto;html=1;strokeWidth=2;strokeColor=#6c8ebf;" edge="1" parent="1" source="b96lccf1VjKM-lZpHiOj-23" target="b96lccf1VjKM-lZpHiOj-13">
          <mxGeometry relative="1" as="geometry" />
        </mxCell>
        <mxCell id="b96lccf1VjKM-lZpHiOj-26" style="edgeStyle=orthogonalEdgeStyle;rounded=0;orthogonalLoop=1;jettySize=auto;html=1;strokeWidth=2;strokeColor=#9673a6;" edge="1" parent="1" source="b96lccf1VjKM-lZpHiOj-13" target="b96lccf1VjKM-lZpHiOj-6">
          <mxGeometry relative="1" as="geometry" />
        </mxCell>
        <mxCell id="b96lccf1VjKM-lZpHiOj-27" style="edgeStyle=orthogonalEdgeStyle;rounded=0;orthogonalLoop=1;jettySize=auto;html=1;strokeWidth=2;strokeColor=#82b366;" edge="1" parent="1" source="b96lccf1VjKM-lZpHiOj-6" target="b96lccf1VjKM-lZpHiOj-3">
          <mxGeometry relative="1" as="geometry">
            <Array as="points">
              <mxPoint x="360" y="366" />
              <mxPoint x="360" y="386" />
            </Array>
          </mxGeometry>
        </mxCell>
        <mxCell id="b96lccf1VjKM-lZpHiOj-28" style="edgeStyle=orthogonalEdgeStyle;rounded=0;orthogonalLoop=1;jettySize=auto;html=1;strokeWidth=2;strokeColor=#6c8ebf;" edge="1" parent="1" source="b96lccf1VjKM-lZpHiOj-24" target="b96lccf1VjKM-lZpHiOj-14">
          <mxGeometry relative="1" as="geometry" />
        </mxCell>
        <mxCell id="b96lccf1VjKM-lZpHiOj-29" style="edgeStyle=orthogonalEdgeStyle;rounded=0;orthogonalLoop=1;jettySize=auto;html=1;strokeWidth=2;strokeColor=#9673a6;" edge="1" parent="1" source="b96lccf1VjKM-lZpHiOj-14" target="b96lccf1VjKM-lZpHiOj-7">
          <mxGeometry relative="1" as="geometry" />
        </mxCell>
        <mxCell id="b96lccf1VjKM-lZpHiOj-30" style="edgeStyle=orthogonalEdgeStyle;rounded=0;orthogonalLoop=1;jettySize=auto;html=1;strokeWidth=2;strokeColor=#82b366;" edge="1" parent="1" source="b96lccf1VjKM-lZpHiOj-7" target="b96lccf1VjKM-lZpHiOj-4">
          <mxGeometry relative="1" as="geometry">
            <Array as="points">
              <mxPoint x="259" y="496" />
            </Array>
          </mxGeometry>
        </mxCell>
        <mxCell id="b96lccf1VjKM-lZpHiOj-31" style="edgeStyle=orthogonalEdgeStyle;rounded=0;orthogonalLoop=1;jettySize=auto;html=1;strokeWidth=2;strokeColor=#82b366;" edge="1" parent="1" source="b96lccf1VjKM-lZpHiOj-3" target="b96lccf1VjKM-lZpHiOj-8">
          <mxGeometry relative="1" as="geometry">
            <Array as="points">
              <mxPoint x="800" y="386" />
              <mxPoint x="800" y="188" />
            </Array>
          </mxGeometry>
        </mxCell>
        <mxCell id="b96lccf1VjKM-lZpHiOj-32" style="edgeStyle=orthogonalEdgeStyle;rounded=0;orthogonalLoop=1;jettySize=auto;html=1;strokeWidth=2;strokeColor=#b85450;" edge="1" parent="1" source="b96lccf1VjKM-lZpHiOj-8" target="b96lccf1VjKM-lZpHiOj-15">
          <mxGeometry relative="1" as="geometry" />
        </mxCell>
        <mxCell id="b96lccf1VjKM-lZpHiOj-33" style="edgeStyle=orthogonalEdgeStyle;rounded=0;orthogonalLoop=1;jettySize=auto;html=1;strokeWidth=2;strokeColor=#d79b00;" edge="1" parent="1" source="b96lccf1VjKM-lZpHiOj-15" target="b96lccf1VjKM-lZpHiOj-20">
          <mxGeometry relative="1" as="geometry" />
        </mxCell>
        <mxCell id="b96lccf1VjKM-lZpHiOj-34" style="edgeStyle=orthogonalEdgeStyle;rounded=0;orthogonalLoop=1;jettySize=auto;html=1;strokeWidth=2;strokeColor=#82b366;entryX=0;entryY=0.5;entryDx=0;entryDy=0;" edge="1" parent="1" source="b96lccf1VjKM-lZpHiOj-3" target="b96lccf1VjKM-lZpHiOj-9">
          <mxGeometry relative="1" as="geometry">
            <mxPoint x="800" y="450" as="targetPoint" />
            <Array as="points">
              <mxPoint x="800" y="386" />
              <mxPoint x="800" y="396" />
            </Array>
          </mxGeometry>
        </mxCell>
        <mxCell id="b96lccf1VjKM-lZpHiOj-35" style="edgeStyle=orthogonalEdgeStyle;rounded=0;orthogonalLoop=1;jettySize=auto;html=1;strokeWidth=2;strokeColor=#b85450;" edge="1" parent="1" source="b96lccf1VjKM-lZpHiOj-9" target="b96lccf1VjKM-lZpHiOj-16">
          <mxGeometry relative="1" as="geometry" />
        </mxCell>
        <mxCell id="b96lccf1VjKM-lZpHiOj-36" style="edgeStyle=orthogonalEdgeStyle;rounded=0;orthogonalLoop=1;jettySize=auto;html=1;strokeWidth=2;strokeColor=#d79b00;" edge="1" parent="1" source="b96lccf1VjKM-lZpHiOj-16" target="b96lccf1VjKM-lZpHiOj-21">
          <mxGeometry relative="1" as="geometry" />
        </mxCell>
        <mxCell id="b96lccf1VjKM-lZpHiOj-37" style="edgeStyle=orthogonalEdgeStyle;rounded=0;orthogonalLoop=1;jettySize=auto;html=1;strokeWidth=2;strokeColor=#82b366;entryX=0;entryY=0.5;entryDx=0;entryDy=0;" edge="1" parent="1" source="b96lccf1VjKM-lZpHiOj-4" target="b96lccf1VjKM-lZpHiOj-10">
          <mxGeometry relative="1" as="geometry">
            <Array as="points">
              <mxPoint x="800" y="496" />
              <mxPoint x="800" y="604" />
            </Array>
          </mxGeometry>
        </mxCell>
        <mxCell id="b96lccf1VjKM-lZpHiOj-38" style="edgeStyle=orthogonalEdgeStyle;rounded=0;orthogonalLoop=1;jettySize=auto;html=1;strokeWidth=2;strokeColor=#b85450;entryX=0;entryY=0.5;entryDx=0;entryDy=0;" edge="1" parent="1" source="b96lccf1VjKM-lZpHiOj-10" target="b96lccf1VjKM-lZpHiOj-17">
          <mxGeometry relative="1" as="geometry">
            <mxPoint x="1000" y="606" as="targetPoint" />
          </mxGeometry>
        </mxCell>
        <mxCell id="b96lccf1VjKM-lZpHiOj-39" style="edgeStyle=orthogonalEdgeStyle;rounded=0;orthogonalLoop=1;jettySize=auto;html=1;strokeWidth=2;strokeColor=#d79b00;exitX=0.5;exitY=0;exitDx=0;exitDy=0;" edge="1" parent="1" source="b96lccf1VjKM-lZpHiOj-17" target="b96lccf1VjKM-lZpHiOj-22">
          <mxGeometry relative="1" as="geometry">
            <mxPoint x="1070" y="556" as="sourcePoint" />
          </mxGeometry>
        </mxCell>
        <mxCell id="b96lccf1VjKM-lZpHiOj-40" value="LEYENDA - ARQUITECTURA HEXAGONAL" style="rounded=1;whiteSpace=wrap;html=1;fillColor=#f5f5f5;strokeColor=#666666;fontSize=14;fontStyle=1;" vertex="1" parent="1">
          <mxGeometry x="19" y="27" width="300" height="30" as="geometry" />
        </mxCell>
        <mxCell id="b96lccf1VjKM-lZpHiOj-41" value="🟢 Verde: Dominio Central (Business Logic)" style="rounded=0;whiteSpace=wrap;html=1;fillColor=#d5e8d4;strokeColor=#82b366;" vertex="1" parent="1">
          <mxGeometry x="19" y="67" width="250" height="25" as="geometry" />
        </mxCell>
        <mxCell id="b96lccf1VjKM-lZpHiOj-42" value="🔵 Azul: Puertos Primarios (Input)" style="rounded=0;whiteSpace=wrap;html=1;fillColor=#dae8fc;strokeColor=#6c8ebf;" vertex="1" parent="1">
          <mxGeometry x="19" y="97" width="250" height="25" as="geometry" />
        </mxCell>
        <mxCell id="b96lccf1VjKM-lZpHiOj-43" value="🔴 Rojo: Puertos Secundarios (Output)" style="rounded=0;whiteSpace=wrap;html=1;fillColor=#f8cecc;strokeColor=#b85450;" vertex="1" parent="1">
          <mxGeometry x="19" y="127" width="250" height="25" as="geometry" />
        </mxCell>
        <mxCell id="b96lccf1VjKM-lZpHiOj-44" value="🟡 Amarillo: Adaptadores (Infrastructure)" style="rounded=0;whiteSpace=wrap;html=1;fillColor=#ffe6cc;strokeColor=#d79b00;" vertex="1" parent="1">
          <mxGeometry x="279" y="67" width="250" height="25" as="geometry" />
        </mxCell>
        <mxCell id="b96lccf1VjKM-lZpHiOj-45" value="⚪ Externo: Sistemas y Clientes Externos" style="rounded=0;whiteSpace=wrap;html=1;fillColor=#f8cecc;strokeColor=#b85450;" vertex="1" parent="1">
          <mxGeometry x="279" y="97" width="250" height="25" as="geometry" />
        </mxCell>
        <mxCell id="b96lccf1VjKM-lZpHiOj-46" value="PATRONES APLICADOS" style="rounded=1;whiteSpace=wrap;html=1;fillColor=#f5f5f5;strokeColor=#666666;fontSize=14;fontStyle=1;" vertex="1" parent="1">
          <mxGeometry x="579" y="27" width="200" height="30" as="geometry" />
        </mxCell>
        <mxCell id="b96lccf1VjKM-lZpHiOj-47" value="✓ Hexagonal Architecture" style="rounded=0;whiteSpace=wrap;html=1;" vertex="1" parent="1">
          <mxGeometry x="579" y="67" width="180" height="20" as="geometry" />
        </mxCell>
        <mxCell id="b96lccf1VjKM-lZpHiOj-48" value="✓ Dependency Inversion" style="rounded=0;whiteSpace=wrap;html=1;" vertex="1" parent="1">
          <mxGeometry x="579" y="92" width="180" height="20" as="geometry" />
        </mxCell>
        <mxCell id="b96lccf1VjKM-lZpHiOj-49" value="✓ Adapter Pattern" style="rounded=0;whiteSpace=wrap;html=1;" vertex="1" parent="1">
          <mxGeometry x="579" y="117" width="180" height="20" as="geometry" />
        </mxCell>
        <mxCell id="b96lccf1VjKM-lZpHiOj-50" value="✓ Saga Pattern" style="rounded=0;whiteSpace=wrap;html=1;" vertex="1" parent="1">
          <mxGeometry x="579" y="142" width="180" height="20" as="geometry" />
        </mxCell>
      </root>
    </mxGraphModel>
  </diagram>
</mxfile>
